<svg xmlns="http://www.w3.org/2000/svg" xmlns:xlink="http://www.w3.org/1999/xlink" contentStyleType="text/css" data-diagram-type="SEQUENCE" height="808px" preserveAspectRatio="none" style="width:614px;height:808px;background:#FFFFFF;" version="1.1" viewBox="0 0 614 808" width="614px" zoomAndPan="magnify"><title>&#26087;&#29256; SDK&#65288;Vault &#24341;&#20837;&#21069;&#65289;&#65306;Agent &#21457;&#24067;&#19982;&#39564;&#31614;</title><defs/><g><text fill="#000000" font-family="sans-serif" font-size="14" font-weight="bold" lengthAdjust="spacing" textLength="302.8047" x="152.019" y="29.5332">&#26087;&#29256; SDK&#65288;Vault &#24341;&#20837;&#21069;&#65289;&#65306;Agent &#21457;&#24067;&#19982;&#39564;&#31614;</text><rect fill="none" height="94.8906" style="stroke:#000000;stroke-width:1.5;" width="273.189" x="324.6538" y="545.0859"/><g><title>...</title><rect fill="#000000" fill-opacity="0.00000" height="604.8125" width="8" x="28" y="121.2188"/><line style="stroke:#181818;stroke-width:0.5;stroke-dasharray:5,5;" x1="32" x2="32" y1="121.2188" y2="726.0313"/></g><g><title>Registry</title><rect fill="#000000" fill-opacity="0.00000" height="604.8125" width="8" x="287.9814" y="121.2188"/><line style="stroke:#181818;stroke-width:0.5;stroke-dasharray:5,5;" x1="291.3091" x2="291.3091" y1="121.2188" y2="726.0313"/></g><g><title>Agent</title><rect fill="#000000" fill-opacity="0.00000" height="604.8125" width="8" x="358.6538" y="121.2188"/><line style="stroke:#181818;stroke-width:0.5;stroke-dasharray:5,5;" x1="362.6538" x2="362.6538" y1="121.2188" y2="726.0313"/></g><g><title>Agent</title><rect fill="#000000" fill-opacity="0.00000" height="604.8125" width="8" x="548.8428" y="121.2188"/><line style="stroke:#181818;stroke-width:0.5;stroke-dasharray:5,5;" x1="552.8428" x2="552.8428" y1="121.2188" y2="726.0313"/></g><g class="participant participant-head" data-participant="Dev"><text fill="#000000" font-family="sans-serif" font-size="14" lengthAdjust="spacing" textLength="42" x="8" y="118.1426">&#24320;&#21457;&#32773;</text><ellipse cx="32" cy="52.1094" fill="#E2E2F0" rx="8" ry="8" style="stroke:#181818;stroke-width:0.5;"/><path d="M32,60.1094 L32,87.1094 M19,68.1094 L45,68.1094 M32,87.1094 L19,102.1094 M32,87.1094 L45,102.1094" fill="none" style="stroke:#181818;stroke-width:0.5;"/></g><g class="participant participant-tail" data-participant="Dev"><text fill="#000000" font-family="sans-serif" font-size="14" lengthAdjust="spacing" textLength="42" x="8" y="739.5645">&#24320;&#21457;&#32773;</text><ellipse cx="32" cy="751.1406" fill="#E2E2F0" rx="8" ry="8" style="stroke:#181818;stroke-width:0.5;"/><path d="M32,759.1406 L32,786.1406 M19,767.1406 L45,767.1406 M32,786.1406 L19,801.1406 M32,786.1406 L45,801.1406" fill="none" style="stroke:#181818;stroke-width:0.5;"/></g><g class="participant participant-head" data-participant="Registry"><rect fill="#E2E2F0" height="31.6094" rx="2.5" ry="2.5" style="stroke:#181818;stroke-width:0.5;" width="65.3447" x="259.3091" y="88.6094"/><text fill="#000000" font-family="sans-serif" font-size="14" lengthAdjust="spacing" textLength="51.3447" x="266.3091" y="110.1426">Registry</text></g><g class="participant participant-tail" data-participant="Registry"><rect fill="#E2E2F0" height="31.6094" rx="2.5" ry="2.5" style="stroke:#181818;stroke-width:0.5;" width="65.3447" x="259.3091" y="725.0313"/><text fill="#000000" font-family="sans-serif" font-size="14" lengthAdjust="spacing" textLength="51.3447" x="266.3091" y="746.5645">Registry</text></g><g class="participant participant-head" data-participant="Caller"><rect fill="#E2E2F0" height="49.2188" rx="2.5" ry="2.5" style="stroke:#181818;stroke-width:0.5;" width="56" x="334.6538" y="71"/><text fill="#000000" font-family="sans-serif" font-size="14" lengthAdjust="spacing" textLength="36.5859" x="344.3608" y="92.5332">Agent</text><text fill="#000000" font-family="sans-serif" font-size="14" lengthAdjust="spacing" textLength="42" x="341.6538" y="110.1426">&#35843;&#29992;&#26041;</text></g><g class="participant participant-tail" data-participant="Caller"><rect fill="#E2E2F0" height="49.2188" rx="2.5" ry="2.5" style="stroke:#181818;stroke-width:0.5;" width="56" x="334.6538" y="725.0313"/><text fill="#000000" font-family="sans-serif" font-size="14" lengthAdjust="spacing" textLength="36.5859" x="344.3608" y="746.5645">Agent</text><text fill="#000000" font-family="sans-serif" font-size="14" lengthAdjust="spacing" textLength="42" x="341.6538" y="764.1738">&#35843;&#29992;&#26041;</text></g><g class="participant participant-head" data-participant="Callee"><rect fill="#E2E2F0" height="49.2188" rx="2.5" ry="2.5" style="stroke:#181818;stroke-width:0.5;" width="70" x="517.8428" y="71"/><text fill="#000000" font-family="sans-serif" font-size="14" lengthAdjust="spacing" textLength="36.5859" x="534.5498" y="92.5332">Agent</text><text fill="#000000" font-family="sans-serif" font-size="14" lengthAdjust="spacing" textLength="56" x="524.8428" y="110.1426">&#34987;&#35843;&#29992;&#26041;</text></g><g class="participant participant-tail" data-participant="Callee"><rect fill="#E2E2F0" height="49.2188" rx="2.5" ry="2.5" style="stroke:#181818;stroke-width:0.5;" width="70" x="517.8428" y="725.0313"/><text fill="#000000" font-family="sans-serif" font-size="14" lengthAdjust="spacing" textLength="36.5859" x="534.5498" y="746.5645">Agent</text><text fill="#000000" font-family="sans-serif" font-size="14" lengthAdjust="spacing" textLength="56" x="524.8428" y="764.1738">&#34987;&#35843;&#29992;&#26041;</text></g><rect fill="#EEEEEE" height="3" style="stroke:#EEEEEE;stroke-width:1;" width="607.8428" x="0" y="152.3945"/><line style="stroke:#000000;stroke-width:1;" x1="0" x2="607.8428" y1="152.3945" y2="152.3945"/><line style="stroke:#000000;stroke-width:1;" x1="0" x2="607.8428" y1="155.3945" y2="155.3945"/><rect fill="#EEEEEE" height="24.3516" style="stroke:#000000;stroke-width:2;" width="84.8652" x="261.4888" y="141.2188"/><text fill="#000000" font-family="sans-serif" font-size="13" font-weight="bold" lengthAdjust="spacing" textLength="67.2534" x="267.4888" y="158.7139">Agent &#21457;&#24067;</text><g class="message" data-participant-1="Dev" data-participant-2="Dev"><line style="stroke:#181818;stroke-width:1;" x1="32" x2="74" y1="197.9219" y2="197.9219"/><line style="stroke:#181818;stroke-width:1;" x1="74" x2="74" y1="197.9219" y2="210.9219"/><line style="stroke:#181818;stroke-width:1;" x1="33" x2="74" y1="210.9219" y2="210.9219"/><polygon fill="#181818" points="43,206.9219,33,210.9219,43,214.9219,39,210.9219" style="stroke:#181818;stroke-width:1;"/><text fill="#000000" font-family="sans-serif" font-size="13" font-weight="bold" lengthAdjust="spacing" textLength="7.23" x="39" y="193.0654">1</text><text fill="#000000" font-family="sans-serif" font-size="13" lengthAdjust="spacing" textLength="97.519" x="50.23" y="193.0654">&#26412;&#22320;&#29983;&#25104; keypair</text></g><g class="message" data-participant-1="Dev" data-participant-2="Registry"><polygon fill="#181818" points="279.9814,237.2734,289.9814,241.2734,279.9814,245.2734,283.9814,241.2734" style="stroke:#181818;stroke-width:1;"/><line style="stroke:#181818;stroke-width:1;" x1="32" x2="285.9814" y1="241.2734" y2="241.2734"/><text fill="#000000" font-family="sans-serif" font-size="13" font-weight="bold" lengthAdjust="spacing" textLength="7.23" x="44" y="236.417">2</text><text fill="#000000" font-family="sans-serif" font-size="13" lengthAdjust="spacing" textLength="224.7515" x="55.23" y="236.417">&#21457;&#24067; agent_id + metadata + public_key</text></g><g class="message" data-participant-1="Registry" data-participant-2="Dev"><polygon fill="#181818" points="43,267.625,33,271.625,43,275.625,39,271.625" style="stroke:#181818;stroke-width:1;"/><line style="stroke:#181818;stroke-width:1;stroke-dasharray:2,2;" x1="37" x2="290.9814" y1="271.625" y2="271.625"/><text fill="#000000" font-family="sans-serif" font-size="13" font-weight="bold" lengthAdjust="spacing" textLength="7.23" x="130.3757" y="266.7686">3</text><text fill="#000000" font-family="sans-serif" font-size="13" lengthAdjust="spacing" textLength="52" x="141.6057" y="266.7686">&#20889;&#20837;&#25104;&#21151;</text></g><path d="M6,284.625 L6,310.625 L317,310.625 L317,294.625 L307,284.625 L6,284.625" fill="#FEFFDD" style="stroke:#181818;stroke-width:0.5;"/><path d="M307,284.625 L307,294.625 L317,294.625 L307,284.625" fill="#FEFFDD" style="stroke:#181818;stroke-width:0.5;"/><text fill="#000000" font-family="sans-serif" font-size="13" lengthAdjust="spacing" textLength="250.6309" x="32.0115" y="303.1201">&#26080;&#31614;&#21517;&#39564;&#35777;&#12289;&#26080; owner &#32465;&#23450;&#12289;&#26080;&#31169;&#38053;&#25176;&#31649;&#12290;</text><rect fill="#EEEEEE" height="3" style="stroke:#EEEEEE;stroke-width:1;" width="607.8428" x="0" y="337.1523"/><line style="stroke:#000000;stroke-width:1;" x1="0" x2="607.8428" y1="337.1523" y2="337.1523"/><line style="stroke:#000000;stroke-width:1;" x1="0" x2="607.8428" y1="340.1523" y2="340.1523"/><rect fill="#EEEEEE" height="24.3516" style="stroke:#000000;stroke-width:2;" width="84.6431" x="261.5999" y="325.9766"/><text fill="#000000" font-family="sans-serif" font-size="13" font-weight="bold" lengthAdjust="spacing" textLength="67.0313" x="267.5999" y="343.4717">&#31614;&#21517;&#19982;&#39564;&#31614;</text><g class="message" data-participant-1="Caller" data-participant-2="Caller"><line style="stroke:#181818;stroke-width:1;" x1="362.6538" x2="404.6538" y1="382.6797" y2="382.6797"/><line style="stroke:#181818;stroke-width:1;" x1="404.6538" x2="404.6538" y1="382.6797" y2="395.6797"/><line style="stroke:#181818;stroke-width:1;" x1="363.6538" x2="404.6538" y1="395.6797" y2="395.6797"/><polygon fill="#181818" points="373.6538,391.6797,363.6538,395.6797,373.6538,399.6797,369.6538,395.6797" style="stroke:#181818;stroke-width:1;"/><text fill="#000000" font-family="sans-serif" font-size="13" font-weight="bold" lengthAdjust="spacing" textLength="7.23" x="369.6538" y="377.8232">4</text><text fill="#000000" font-family="sans-serif" font-size="13" lengthAdjust="spacing" textLength="78" x="380.8838" y="377.8232">&#26412;&#22320;&#31169;&#38053;&#31614;&#21517;</text></g><g class="message" data-participant-1="Caller" data-participant-2="Callee"><polygon fill="#181818" points="540.8428,422.0313,550.8428,426.0313,540.8428,430.0313,544.8428,426.0313" style="stroke:#181818;stroke-width:1;"/><line style="stroke:#181818;stroke-width:1;" x1="362.6538" x2="546.8428" y1="426.0313" y2="426.0313"/><text fill="#000000" font-family="sans-serif" font-size="13" font-weight="bold" lengthAdjust="spacing" textLength="7.23" x="374.6538" y="421.1748">5</text><text fill="#000000" font-family="sans-serif" font-size="13" lengthAdjust="spacing" textLength="154.959" x="385.8838" y="421.1748">HTTP &#35831;&#27714; + &#31614;&#21517; headers</text></g><g class="message" data-participant-1="Callee" data-participant-2="Registry"><polygon fill="#181818" points="302.9814,452.3828,292.9814,456.3828,302.9814,460.3828,298.9814,456.3828" style="stroke:#181818;stroke-width:1;"/><line style="stroke:#181818;stroke-width:1;" x1="296.9814" x2="551.8428" y1="456.3828" y2="456.3828"/><text fill="#000000" font-family="sans-serif" font-size="13" font-weight="bold" lengthAdjust="spacing" textLength="7.23" x="374.8899" y="451.5264">6</text><text fill="#000000" font-family="sans-serif" font-size="13" lengthAdjust="spacing" textLength="83.8145" x="386.1199" y="451.5264">&#26597;&#35810; metadata</text></g><g class="message" data-participant-1="Registry" data-participant-2="Callee"><polygon fill="#181818" points="540.8428,482.7344,550.8428,486.7344,540.8428,490.7344,544.8428,486.7344" style="stroke:#181818;stroke-width:1;"/><line style="stroke:#181818;stroke-width:1;stroke-dasharray:2,2;" x1="291.9814" x2="546.8428" y1="486.7344" y2="486.7344"/><text fill="#000000" font-family="sans-serif" font-size="13" font-weight="bold" lengthAdjust="spacing" textLength="7.23" x="386.084" y="481.8779">7</text><text fill="#000000" font-family="sans-serif" font-size="13" lengthAdjust="spacing" textLength="61.4263" x="397.314" y="481.8779">public_key</text></g><g class="message" data-participant-1="Callee" data-participant-2="Callee"><line style="stroke:#181818;stroke-width:1;" x1="552.8428" x2="594.8428" y1="517.0859" y2="517.0859"/><line style="stroke:#181818;stroke-width:1;" x1="594.8428" x2="594.8428" y1="517.0859" y2="530.0859"/><line style="stroke:#181818;stroke-width:1;" x1="553.8428" x2="594.8428" y1="530.0859" y2="530.0859"/><polygon fill="#181818" points="563.8428,526.0859,553.8428,530.0859,563.8428,534.0859,559.8428,530.0859" style="stroke:#181818;stroke-width:1;"/><text fill="#000000" font-family="sans-serif" font-size="13" font-weight="bold" lengthAdjust="spacing" textLength="7.23" x="559.8428" y="512.2295">8</text><text fill="#000000" font-family="sans-serif" font-size="13" lengthAdjust="spacing" textLength="26" x="571.0728" y="512.2295">&#39564;&#31614;</text></g><path d="M324.6538,545.0859 L384.8247,545.0859 L384.8247,553.4375 L374.8247,563.4375 L324.6538,563.4375 L324.6538,545.0859" fill="#EEEEEE" style="stroke:#000000;stroke-width:1.5;"/><rect fill="none" height="94.8906" style="stroke:#000000;stroke-width:1.5;" width="273.189" x="324.6538" y="545.0859"/><text fill="#000000" font-family="sans-serif" font-size="13" font-weight="bold" lengthAdjust="spacing" textLength="15.1709" x="339.6538" y="559.5811">alt</text><text fill="#000000" font-family="sans-serif" font-size="11" font-weight="bold" lengthAdjust="spacing" textLength="30.0137" x="399.8247" y="558.5049">[&#36890;&#36807;]</text><g class="message" data-participant-1="Callee" data-participant-2="Caller"><polygon fill="#181818" points="373.6538,581.7891,363.6538,585.7891,373.6538,589.7891,369.6538,585.7891" style="stroke:#181818;stroke-width:1;"/><line style="stroke:#181818;stroke-width:1;stroke-dasharray:2,2;" x1="367.6538" x2="551.8428" y1="585.7891" y2="585.7891"/><text fill="#000000" font-family="sans-serif" font-size="13" font-weight="bold" lengthAdjust="spacing" textLength="7.23" x="439.1333" y="580.9326">9</text><text fill="#000000" font-family="sans-serif" font-size="13" lengthAdjust="spacing" textLength="26" x="450.3633" y="580.9326">&#22788;&#29702;</text></g><line style="stroke:#000000;stroke-width:1;stroke-dasharray:2,2;" x1="324.6538" x2="597.8428" y1="594.7891" y2="594.7891"/><text fill="#000000" font-family="sans-serif" font-size="11" font-weight="bold" lengthAdjust="spacing" textLength="30.0137" x="329.6538" y="606.208">[&#25298;&#32477;]</text><g class="message" data-participant-1="Callee" data-participant-2="Caller"><polygon fill="#181818" points="373.6538,627.9766,363.6538,631.9766,373.6538,635.9766,369.6538,631.9766" style="stroke:#181818;stroke-width:1;"/><line style="stroke:#181818;stroke-width:1;stroke-dasharray:2,2;" x1="367.6538" x2="551.8428" y1="631.9766" y2="631.9766"/><text fill="#000000" font-family="sans-serif" font-size="13" font-weight="bold" lengthAdjust="spacing" textLength="14.46" x="422.5183" y="627.1201">10</text><text fill="#000000" font-family="sans-serif" font-size="13" lengthAdjust="spacing" textLength="52" x="440.9783" y="627.1201">&#31614;&#21517;&#26080;&#25928;</text></g><path d="M5,651.9766 L5,710.9766 L579,710.9766 L579,661.9766 L569,651.9766 L5,651.9766" fill="#FEFFDD" style="stroke:#181818;stroke-width:0.5;"/><path d="M569,651.9766 L569,661.9766 L579,661.9766 L569,651.9766" fill="#FEFFDD" style="stroke:#181818;stroke-width:0.5;"/><text fill="#000000" font-family="sans-serif" font-size="13" lengthAdjust="spacing" textLength="295.4263" x="126.6528" y="670.4717">&#24403;&#21069;&#29256;&#25913;&#36827;&#65306;Vault &#25176;&#31649;&#31169;&#38053;&#12289;SDK &#33258;&#21160;&#31649;&#29702; key&#12289;</text><text fill="#000000" font-family="sans-serif" font-size="13" lengthAdjust="spacing" textLength="322.5371" x="126.6528" y="686.8232">Registry &#21452;&#37325;&#39564;&#35777; + owner &#32465;&#23450;&#12289;rotate-key &#23433;&#20840;&#36718;&#25442;&#12290;</text><text fill="#000000" font-family="sans-serif" font-size="13" lengthAdjust="spacing" textLength="187.1289" x="126.6528" y="703.1748">&#35814;&#35265; sdk-current-sequence.puml</text><!--SRC=[TLDTJnDH47s_lsB2gzQl9sCe2Sg3YJ4XIdmo8PVkM3PiT-lTkrHYJ5eGsY98GH1534f426gBJq8eycFmxcwV-0lEThlR1V5jT-RCkNFEp4XT6WZkwhPNhS33WNkdpSeZxXWIL7D5JM-fwlnfithQNElFead1XKMrF_Ld_tLhTyxxyPinUqmtyrpm7DYZNBCAkfc59zomCPd1fmwQ6RoFjisps6_eMHCoH8SYWH9evotJZb2tqR0A_K9O1P32GSPwRJbXO1y38BpKCtgUKqFFOP1hMl3gZPlmWf8ZrhD4yFer2lPUxPGoxaZBT78Zz33Z6Ma9w57D8edoYzCzm6qOm76MfEzvW5dTbcAYdOr-paBQpZms_RqfRtd7VNlGXjxXXa6lN0ZS_7O1bXIcqv1q6T9fngWXIFK5VS4jSDU_g_KzRtd3hTHW32VoN1SH8kgDO9ro7d0DwnfSWXnAhd79wJFlZ1XwPfYgMLoIYbzGC-zfw4IlPZSOCos9O8sZ2BANk_BTrKyqV5MRfotm6wMJOeaYO1LCGdg7Ywg-5eQyxL9hQSkjllFgdq-AamnD3GBEjjIG8LwbjjhGjK1EvolMt6OAIywZa51tXuO6mM_ySdzEaiOG1wF8DHHsXnRFkUHkRFcDpTYQisx4n0cxkYnnDhe2JlVIAgxvnsNQG8ZogQGEzUMbLvjXIAS1xgibx_3ZVw5X- -IVkr89FFjd49s5KKTlw3pfRjtb0__u0nrfUBcXuQ5bD0WwQl3Bksfs9uZMPeBDeN1Ni5gOQvKxioJtpirHM99BJ54Hg7fLJU_uHtLtVZEOfz_uwc-NmDR6KXb725gtL7JhL_9EpkWE_2y0]--></g></svg>